<svg viewBox="0 0 519 187" fill="none" xmlns="http://www.w3.org/2000/svg" xmlns:xlink="http://www.w3.org/1999/xlink">
<g id="Frame 2">
<rect width="518.192" height="187" fill="#0D1117"/>
<g id="Frame 1">
<rect id="image 1" x="41" y="19" width="210.692" height="83" fill="url(#pattern0)"/>
<rect id="image 2" x="269.692" y="19" width="207.5" height="83" fill="url(#pattern1)"/>
</g>
<g id="Frame 1_2">
<g id="Frame 2_2">
<rect x="137.596" y="141" width="243" height="27" rx="5" fill="#161B22"/>
<g id="Frame 2_3">
<a xlink:href="https://www.instagram.com/aman._._mohammed/">
<g id="Frame" clip-path="url(#clip0_7_25)">
<path id="instagram" d="M175.523 151.166C173.678 151.166 172.19 152.654 172.19 154.499C172.19 156.343 173.678 157.831 175.523 157.831C177.367 157.831 178.855 156.343 178.855 154.499C178.855 152.654 177.367 151.166 175.523 151.166ZM175.523 156.665C174.331 156.665 173.356 155.693 173.356 154.499C173.356 153.304 174.328 152.332 175.523 152.332C176.717 152.332 177.689 153.304 177.689 154.499C177.689 155.693 176.715 156.665 175.523 156.665V156.665ZM179.768 151.03C179.768 151.462 179.42 151.807 178.991 151.807C178.559 151.807 178.214 151.459 178.214 151.03C178.214 150.601 178.562 150.253 178.991 150.253C179.42 150.253 179.768 150.601 179.768 151.03ZM181.975 151.819C181.926 150.778 181.688 149.855 180.926 149.096C180.166 148.336 179.244 148.098 178.202 148.046C177.129 147.985 173.913 147.985 172.84 148.046C171.802 148.095 170.879 148.333 170.117 149.093C169.354 149.852 169.119 150.775 169.067 151.816C169.006 152.889 169.006 156.105 169.067 157.178C169.116 158.219 169.354 159.142 170.117 159.902C170.879 160.661 171.799 160.899 172.84 160.951C173.913 161.012 177.129 161.012 178.202 160.951C179.244 160.902 180.166 160.664 180.926 159.902C181.685 159.142 181.923 158.219 181.975 157.178C182.036 156.105 182.036 152.892 181.975 151.819V151.819ZM180.589 158.33C180.363 158.898 179.925 159.336 179.354 159.565C178.498 159.904 176.468 159.826 175.523 159.826C174.577 159.826 172.544 159.902 171.691 159.565C171.123 159.339 170.685 158.901 170.456 158.33C170.117 157.474 170.195 155.444 170.195 154.499C170.195 153.553 170.12 151.52 170.456 150.667C170.682 150.099 171.12 149.661 171.691 149.432C172.547 149.093 174.577 149.171 175.523 149.171C176.468 149.171 178.501 149.096 179.354 149.432C179.922 149.658 180.36 150.096 180.589 150.667C180.929 151.523 180.85 153.553 180.85 154.499C180.85 155.444 180.929 157.477 180.589 158.33Z" fill="#8E97A5"/>
</g>
</a>
<g id="Frame_2" clip-path="url(#clip1_7_25)">
<path id="spotify" d="M207.521 148C203.933 148 201.021 150.912 201.021 154.5C201.021 158.088 203.933 161 207.521 161C211.109 161 214.021 158.088 214.021 154.5C214.021 150.912 211.109 148 207.521 148ZM210.16 157.564C210.05 157.564 209.982 157.53 209.88 157.47C208.245 156.484 206.342 156.442 204.463 156.827C204.36 156.854 204.227 156.896 204.151 156.896C203.896 156.896 203.737 156.694 203.737 156.481C203.737 156.211 203.896 156.083 204.093 156.041C206.24 155.567 208.433 155.609 210.305 156.728C210.465 156.83 210.559 156.922 210.559 157.16C210.559 157.399 210.373 157.564 210.16 157.564V157.564ZM210.866 155.845C210.729 155.845 210.638 155.784 210.543 155.734C208.905 154.765 206.462 154.374 204.29 154.964C204.164 154.998 204.096 155.032 203.978 155.032C203.697 155.032 203.469 154.804 203.469 154.524C203.469 154.243 203.605 154.057 203.875 153.981C204.604 153.777 205.348 153.625 206.439 153.625C208.14 153.625 209.783 154.047 211.078 154.817C211.29 154.943 211.374 155.105 211.374 155.333C211.371 155.617 211.151 155.845 210.866 155.845V155.845ZM211.678 153.847C211.542 153.847 211.458 153.813 211.34 153.745C209.474 152.631 206.137 152.364 203.978 152.967C203.883 152.993 203.765 153.035 203.64 153.035C203.294 153.035 203.029 152.765 203.029 152.416C203.029 152.06 203.249 151.858 203.485 151.79C204.407 151.52 205.44 151.392 206.565 151.392C208.478 151.392 210.483 151.79 211.948 152.644C212.152 152.762 212.286 152.925 212.286 153.237C212.286 153.593 211.998 153.847 211.678 153.847V153.847Z" fill="#8E97A5"/>
</g>
<g id="Frame_3" clip-path="url(#clip2_7_25)">
<path id="telegram" d="M239.521 148C235.931 148 233.021 150.91 233.021 154.5C233.021 158.09 235.931 161 239.521 161C243.111 161 246.021 158.09 246.021 154.5C246.021 150.91 243.111 148 239.521 148ZM242.534 152.421C242.436 153.448 242.013 155.943 241.798 157.094C241.706 157.581 241.527 157.744 241.353 157.76C240.976 157.795 240.689 157.511 240.324 157.271C239.752 156.896 239.428 156.663 238.873 156.297C238.231 155.874 238.647 155.641 239.013 155.261C239.109 155.162 240.772 153.649 240.804 153.512C240.808 153.495 240.812 153.431 240.774 153.397C240.736 153.363 240.68 153.375 240.639 153.384C240.582 153.397 239.668 154.001 237.898 155.196C237.638 155.374 237.403 155.461 237.193 155.456C236.961 155.451 236.514 155.325 236.182 155.217C235.775 155.085 235.452 155.015 235.48 154.79C235.494 154.673 235.656 154.554 235.963 154.431C237.858 153.606 239.122 153.061 239.754 152.798C241.559 152.048 241.934 151.917 242.179 151.913C242.232 151.912 242.353 151.925 242.431 151.988C242.482 152.033 242.515 152.096 242.523 152.164C242.536 152.249 242.54 152.335 242.534 152.421V152.421Z" fill="#8E97A5"/>
</g>
<g id="Frame_4" clip-path="url(#clip3_7_25)">
<path id="twi" d="M279.386 151.24C279.396 151.382 279.396 151.524 279.396 151.666C279.396 156.003 276.094 161 270.06 161C268.201 161 266.474 160.462 265.021 159.527C265.285 159.558 265.539 159.568 265.814 159.568C267.347 159.568 268.76 159.05 269.887 158.166C268.445 158.136 267.236 157.191 266.819 155.891C267.022 155.922 267.226 155.942 267.439 155.942C267.734 155.942 268.028 155.902 268.302 155.83C266.799 155.526 265.671 154.205 265.671 152.611V152.57C266.108 152.814 266.616 152.966 267.154 152.987C266.271 152.398 265.692 151.392 265.692 150.255C265.692 149.645 265.854 149.087 266.139 148.599C267.754 150.59 270.182 151.89 272.904 152.032C272.853 151.788 272.823 151.534 272.823 151.28C272.823 149.473 274.286 148 276.104 148C277.049 148 277.902 148.396 278.502 149.036C279.243 148.894 279.954 148.62 280.584 148.244C280.34 149.005 279.822 149.645 279.142 150.052C279.802 149.98 280.442 149.798 281.031 149.544C280.584 150.194 280.026 150.773 279.386 151.24V151.24Z" fill="#8E97A5"/>
</g>
<g id="Frame_5" clip-path="url(#clip4_7_25)">
<path id="reddit" d="M305.103 155.797C304.741 155.797 304.45 155.506 304.45 155.153C304.45 154.791 304.741 154.5 305.103 154.5C305.459 154.5 305.747 154.791 305.747 155.153C305.747 155.509 305.457 155.797 305.103 155.797ZM313.031 154.5C313.031 158.091 310.122 161 306.531 161C302.94 161 300.031 158.091 300.031 154.5C300.031 150.909 302.94 148 306.531 148C310.122 148 313.031 150.909 313.031 154.5ZM309.564 153.42C309.317 153.42 309.1 153.522 308.94 153.682C308.353 153.276 307.561 153.014 306.683 152.985L307.139 150.933L308.591 151.26C308.591 151.617 308.882 151.905 309.236 151.905C309.598 151.905 309.889 151.609 309.889 151.253C309.889 150.896 309.598 150.6 309.236 150.6C308.982 150.6 308.764 150.752 308.657 150.962L307.053 150.605C306.974 150.584 306.893 150.642 306.872 150.721L306.371 152.985C305.501 153.022 304.717 153.281 304.13 153.687C303.97 153.52 303.745 153.42 303.499 153.42C302.584 153.42 302.285 154.649 303.121 155.066C303.092 155.197 303.077 155.333 303.077 155.472C303.077 156.851 304.628 157.968 306.536 157.968C308.452 157.968 310.004 156.851 310.004 155.472C310.004 155.333 309.988 155.189 309.954 155.058C310.774 154.639 310.473 153.42 309.564 153.42V153.42ZM307.758 156.466C307.281 156.943 305.763 156.935 305.305 156.466C305.247 156.408 305.145 156.408 305.087 156.466C305.021 156.531 305.021 156.633 305.087 156.691C305.685 157.289 307.375 157.289 307.975 156.691C308.041 156.633 308.041 156.531 307.975 156.466C307.918 156.408 307.815 156.408 307.758 156.466ZM307.96 154.5C307.603 154.5 307.315 154.791 307.315 155.153C307.315 155.509 307.606 155.797 307.96 155.797C308.321 155.797 308.612 155.506 308.612 155.153C308.612 154.791 308.324 154.5 307.96 154.5V154.5Z" fill="#8E97A5"/>
</g>
<g id="Frame_6" clip-path="url(#clip5_7_25)">
<path id="discord" d="M346.563 149.098C346.558 149.089 346.551 149.082 346.541 149.078C345.43 148.57 344.257 148.208 343.052 148.001C343.041 147.999 343.03 148 343.02 148.005C343.01 148.01 343.001 148.018 342.996 148.027C342.836 148.316 342.691 148.612 342.562 148.915C341.263 148.719 339.942 148.719 338.643 148.915C338.513 148.611 338.365 148.315 338.202 148.027C338.196 148.018 338.188 148.01 338.178 148.005C338.168 148.001 338.157 147.999 338.146 148.001C336.941 148.208 335.768 148.57 334.657 149.078C334.648 149.082 334.64 149.089 334.634 149.097C332.412 152.401 331.803 155.623 332.102 158.805C332.103 158.813 332.105 158.82 332.109 158.827C332.113 158.834 332.118 158.84 332.124 158.845C333.418 159.799 334.865 160.527 336.404 160.998C336.415 161.001 336.427 161.001 336.437 160.997C336.448 160.994 336.457 160.987 336.464 160.978C336.795 160.53 337.088 160.056 337.34 159.561C337.343 159.554 337.345 159.547 337.346 159.539C337.346 159.531 337.345 159.524 337.342 159.517C337.339 159.509 337.335 159.503 337.329 159.498C337.324 159.492 337.317 159.488 337.31 159.486C336.848 159.31 336.401 159.098 335.973 158.852C335.965 158.847 335.959 158.841 335.954 158.833C335.949 158.825 335.947 158.817 335.946 158.808C335.946 158.799 335.947 158.79 335.951 158.782C335.955 158.773 335.961 158.766 335.968 158.761C336.058 158.694 336.147 158.624 336.233 158.554C336.241 158.547 336.25 158.543 336.26 158.542C336.27 158.541 336.28 158.542 336.289 158.546C339.094 159.821 342.131 159.821 344.902 158.546C344.911 158.542 344.922 158.54 344.931 158.542C344.941 158.543 344.951 158.547 344.958 158.553C345.044 158.623 345.134 158.694 345.225 158.761C345.232 158.766 345.238 158.773 345.242 158.781C345.245 158.79 345.247 158.798 345.247 158.807C345.246 158.816 345.243 158.825 345.239 158.833C345.234 158.84 345.228 158.847 345.22 158.852C344.793 159.1 344.345 159.312 343.882 159.485C343.875 159.488 343.869 159.492 343.863 159.497C343.858 159.503 343.853 159.509 343.851 159.516C343.848 159.524 343.847 159.531 343.847 159.539C343.848 159.546 343.85 159.554 343.853 159.561C344.11 160.054 344.402 160.527 344.728 160.977C344.735 160.987 344.744 160.993 344.755 160.997C344.766 161.001 344.777 161.001 344.788 160.998C346.33 160.528 347.779 159.8 349.075 158.845C349.081 158.84 349.087 158.834 349.09 158.828C349.094 158.821 349.097 158.813 349.097 158.806C349.455 155.127 348.499 151.931 346.563 149.098ZM337.759 156.867C336.914 156.867 336.218 156.096 336.218 155.148C336.218 154.201 336.901 153.429 337.759 153.429C338.624 153.429 339.313 154.208 339.299 155.148C339.299 156.096 338.617 156.867 337.759 156.867ZM343.454 156.867C342.61 156.867 341.914 156.096 341.914 155.148C341.914 154.201 342.596 153.429 343.454 153.429C344.319 153.429 345.008 154.208 344.994 155.148C344.994 156.096 344.319 156.867 343.454 156.867Z" fill="#8E97A5"/>
</g>
</g>
</g>
</g>
</g>
<defs>
<pattern id="pattern0" patternContentUnits="objectBoundingBox" width="1" height="1">
<use xlink:href="#image0_7_25" transform="scale(0.0020202 0.00512821)"/>
</pattern>
<pattern id="pattern1" patternContentUnits="objectBoundingBox" width="1" height="1">
<use xlink:href="#image1_7_25" transform="scale(0.00285714 0.00714286)"/>
</pattern>
<clipPath id="clip0_7_25">
<rect width="13" height="13" fill="white" transform="translate(169.021 148)"/>
</clipPath>
<clipPath id="clip1_7_25">
<rect width="13" height="13" fill="white" transform="translate(201.021 148)"/>
</clipPath>
<clipPath id="clip2_7_25">
<rect width="13" height="13" fill="white" transform="translate(233.021 148)"/>
</clipPath>
<clipPath id="clip3_7_25">
<rect width="16.01" height="13" fill="white" transform="translate(265.021 148)"/>
</clipPath>
<clipPath id="clip4_7_25">
<rect width="13" height="13" fill="white" transform="translate(300.031 148)"/>
</clipPath>
<clipPath id="clip5_7_25">
<rect width="17.14" height="13" fill="white" transform="translate(332.031 148)"/>
</clipPath>
<image id="image0_7_25" data-name="image.png" width="495" height="195" xlink:href="https://github-readme-stats.vercel.app/api?username=aman-mohammed-max&amp;&amp;show_icons=true&amp;title_color=ffffff&amp;icon_color=bb2acf&amp;text_color=daf7dc&amp;bg_color=0d1017"/>
<image id="image1_7_25" data-name="image.png" width="350" height="140" xlink:href="https://github-readme-stats.vercel.app/api/top-langs/?username=aman-mohammed-max&amp;layout=compact&amp;show_icons=true&amp;title_color=ffffff&amp;icon_color=bb2acf&amp;text_color=daf7dc&amp;bg_color=0d1017"/>
</defs>
</svg>
